<?xml version="1.0" encoding="UTF-8"?>
<!DOCTYPE svg PUBLIC "-//W3C//DTD SVG 1.1//EN" "http://www.w3.org/Graphics/SVG/1.1/DTD/svg11.dtd">
<svg xmlns="http://www.w3.org/2000/svg" version="1.1" width="512px" height="512px" style="shape-rendering:geometricPrecision; text-rendering:geometricPrecision; image-rendering:optimizeQuality; fill-rule:evenodd; clip-rule:evenodd" xmlns:xlink="http://www.w3.org/1999/xlink">
<g><path style="opacity:1" fill="#4dc493" d="M 511.5,42.5 C 511.5,46.1667 511.5,49.8333 511.5,53.5C 471.404,183.63 431.571,313.963 392,444.5C 390.726,448.99 389.059,453.323 387,457.5C 380.738,463.93 373.571,465.097 365.5,461C 320.268,426.801 274.768,392.968 229,359.5C 210.256,397.322 191.256,434.989 172,472.5C 165.738,478.93 158.571,480.097 150.5,476C 147.894,474.062 146.061,471.562 145,468.5C 144.833,411.83 144.333,355.164 143.5,298.5C 98.1274,281.098 52.7941,263.598 7.5,246C 3.92315,243.926 1.25648,241.093 -0.5,237.5C -0.5,233.833 -0.5,230.167 -0.5,226.5C 0.879222,223.614 2.87922,221.114 5.5,219C 167.755,156.804 330.089,94.8037 492.5,33C 501.322,31.4106 507.655,34.5773 511.5,42.5 Z M 383.5,108.5 C 308.459,163.025 232.959,217.025 157,270.5C 124.237,257.537 91.4041,244.704 58.5,232C 166.674,190.332 275.007,149.165 383.5,108.5 Z M 460.5,108.5 C 461.043,108.56 461.376,108.893 461.5,109.5C 429.77,213.858 397.936,318.191 366,422.5C 326.335,392.994 286.835,363.328 247.5,333.5C 318.887,258.782 389.887,183.782 460.5,108.5 Z M 369.5,158.5 C 317.237,214.933 264.404,270.933 211,326.5C 198.744,350.011 186.744,373.678 175,397.5C 174.333,363.833 174.333,330.167 175,296.5C 239.628,250.112 304.461,204.112 369.5,158.5 Z"/></g>
</svg>
