<?xml version="1.0" encoding="UTF-8"?><svg id="a" xmlns="http://www.w3.org/2000/svg" viewBox="0 0 275.27 87.44"><defs><style>.b{fill:#4dc494;}.c{fill:#4dc493;fill-rule:evenodd;}.d{fill:#e0ab4f;}</style></defs><g><path class="b" d="M114.3,36.16l4.61,17.71c1.01,3.89,1.94,7.49,2.59,11.09h.22c.79-3.53,1.94-7.27,3.1-11.02l5.69-17.79h5.33l5.4,17.43c1.3,4.18,2.3,7.85,3.1,11.38h.22c.58-3.53,1.51-7.2,2.66-11.31l4.97-17.5h6.26l-11.23,34.85h-5.76l-5.33-16.63c-1.22-3.89-2.23-7.34-3.1-11.45h-.14c-.86,4.18-1.94,7.78-3.17,11.52l-5.62,16.56h-5.76l-10.51-34.85h6.48Z"/><path class="b" d="M171.83,26.36c.07,2.16-1.51,3.89-4.03,3.89-2.23,0-3.82-1.73-3.82-3.89s1.66-3.96,3.96-3.96,3.89,1.73,3.89,3.96Zm-7.06,44.64V36.16h6.34v34.85h-6.34Z"/><path class="b" d="M177.66,67.33l15.77-20.52c1.51-1.87,2.95-3.53,4.54-5.4v-.14h-18.87v-5.11h26.57l-.07,3.96-15.55,20.23c-1.44,1.94-2.88,3.67-4.46,5.47v.14h47.42l12,5.04h-67.34v-3.67Z"/></g><path class="c" d="M272,51.77v.83c-3.02,9.8-6.02,19.62-9,29.45-.1,.34-.22,.66-.38,.98-.47,.48-1.01,.57-1.62,.26-3.41-2.58-6.83-5.12-10.28-7.65-1.41,2.85-2.84,5.69-4.29,8.51-.47,.48-1.01,.57-1.62,.26-.2-.15-.33-.33-.41-.56-.01-4.27-.05-8.54-.11-12.81-3.42-1.31-6.83-2.63-10.24-3.95-.27-.16-.47-.37-.6-.64v-.83c.1-.22,.25-.41,.45-.56,12.22-4.69,24.45-9.36,36.68-14.01,.66-.12,1.14,.12,1.43,.72Zm-9.64,4.97c-5.65,4.11-11.34,8.18-17.06,12.2-2.47-.98-4.94-1.94-7.42-2.9,8.15-3.14,16.31-6.24,24.48-9.3Zm5.8,0s.07,.03,.08,.08c-2.39,7.86-4.79,15.72-7.19,23.58-2.99-2.22-5.96-4.46-8.93-6.7,5.38-5.63,10.73-11.28,16.04-16.95Zm-6.85,3.77c-3.94,4.25-7.92,8.47-11.94,12.66-.92,1.77-1.83,3.55-2.71,5.35-.05-2.54-.05-5.07,0-7.61,4.87-3.49,9.75-6.96,14.65-10.4Z"/><g><path class="d" d="M14.17,7.71v10.01h9.07v4.82H14.17v18.79c0,4.32,1.22,6.77,4.75,6.77,1.66,0,2.88-.22,3.67-.43l.29,4.75c-1.22,.5-3.17,.86-5.62,.86-2.95,0-5.33-.94-6.84-2.66-1.8-1.87-2.45-4.97-2.45-9.07V22.54H2.58v-4.82H7.98V9.37l6.19-1.66Z"/><path class="d" d="M30.37,28.59c0-4.1-.07-7.63-.29-10.87h5.54l.22,6.84h.29c1.58-4.68,5.4-7.63,9.65-7.63,.72,0,1.22,.07,1.8,.22v5.98c-.65-.14-1.3-.22-2.16-.22-4.46,0-7.63,3.38-8.5,8.14-.14,.86-.29,1.87-.29,2.95v18.58h-6.26V28.59Z"/><path class="d" d="M61.26,7.93c.07,2.16-1.51,3.89-4.03,3.89-2.23,0-3.82-1.73-3.82-3.89s1.66-3.96,3.96-3.96,3.89,1.73,3.89,3.96Zm-7.06,44.64V17.72h6.34V52.57h-6.34Z"/><path class="d" d="M71.05,29.1c0-4.46-.14-8.06-.29-11.38h5.69l.29,5.98h.14c2.59-4.25,6.7-6.77,12.39-6.77,8.42,0,14.76,7.13,14.76,17.71,0,12.53-7.63,18.72-15.84,18.72-4.61,0-8.64-2.02-10.73-5.47h-.14v18.94h-6.26V29.1Zm6.26,9.29c0,.94,.14,1.8,.29,2.59,1.15,4.39,4.97,7.42,9.5,7.42,6.7,0,10.58-5.47,10.58-13.47,0-6.98-3.67-12.96-10.37-12.96-4.32,0-8.35,3.1-9.58,7.85-.22,.79-.43,1.73-.43,2.59v5.98Z"/></g></svg>